<?xml version="1.0" standalone="no"?>
<!DOCTYPE svg PUBLIC "-//W3C//DTD SVG 20010904//EN"
 "http://www.w3.org/TR/2001/REC-SVG-20010904/DTD/svg10.dtd">
<svg version="1.0" xmlns="http://www.w3.org/2000/svg"
 width="1238.000000pt" height="1238.000000pt" viewBox="0 0 1238.000000 1238.000000"
 preserveAspectRatio="xMidYMid meet">
<metadata>
Created by potrace 1.14, written by Peter Selinger 2001-2017
</metadata>
<g transform="translate(0.000000,1238.000000) scale(0.100000,-0.100000)"
fill="#000000" stroke="none">
<path d="M7402 11339 c-55 -27 -99 -81 -108 -133 -4 -23 -8 -130 -9 -238 0
-108 -3 -199 -5 -201 -3 -2 -68 -25 -145 -51 -77 -26 -205 -79 -285 -117 -80
-38 -149 -69 -153 -69 -4 0 -59 51 -121 114 -185 183 -235 217 -316 212 -76
-6 -109 -34 -506 -430 -215 -215 -400 -405 -412 -422 -11 -17 -26 -51 -33 -77
l-11 -47 -1827 0 c-1822 0 -1827 0 -1912 -21 -250 -62 -456 -268 -518 -518
l-21 -85 0 -2985 1 -2986 24 -84 c75 -256 311 -493 570 -572 79 -24 87 -24
450 -24 l370 0 46 27 c47 29 82 79 94 135 l7 33 248 0 249 0 23 -33 c29 -41
92 -101 142 -135 32 -22 49 -26 105 -26 55 0 73 4 104 26 50 34 84 81 92 129
l7 39 278 0 278 0 22 -34 c24 -39 110 -119 155 -144 25 -14 68 -18 263 -20
l232 -4 0 -539 0 -539 -352 -1 c-194 0 -364 -3 -378 -5 -72 -13 -150 -114
-150 -194 0 -76 96 -205 194 -258 29 -16 146 -17 1705 -20 1077 -1 1686 1
1710 8 44 12 106 61 127 102 26 50 21 138 -11 192 -31 54 -126 143 -172 163
-25 10 -107 13 -353 13 l-320 0 0 540 0 540 1528 0 c840 0 1559 3 1597 7 72 6
228 54 256 79 8 8 21 14 27 14 20 0 142 105 190 165 58 72 103 155 134 250
l23 70 3 1365 3 1364 106 106 c133 132 169 176 178 220 23 102 -9 160 -185
339 l-137 138 65 134 c35 74 90 206 121 294 l56 160 185 2 c102 1 206 4 231 7
60 6 110 37 145 89 l29 42 0 605 0 605 -26 40 c-40 59 -128 142 -174 161 -32
14 -76 18 -228 19 -103 2 -189 4 -191 6 -2 2 -20 54 -41 114 -21 61 -70 174
-108 252 l-70 142 150 150 c83 83 158 166 167 185 33 69 21 150 -33 221 -44
58 -819 833 -869 869 -19 14 -56 30 -83 36 -41 10 -56 9 -101 -6 -45 -15 -75
-39 -208 -169 l-155 -152 -140 68 c-77 38 -167 79 -200 90 -33 12 -86 30 -118
41 l-57 21 1 178 c0 98 -5 195 -10 217 -13 46 -107 153 -170 193 l-44 28 -591
1 c-583 0 -592 0 -634 -21z"/>
</g>
</svg>
